<svg xmlns="http://www.w3.org/2000/svg" xmlns:svg="http://www.w3.org/2000/svg" id="svg6" width="24" height="24" version="1.1" viewBox="0 0 24 24"><metadata id="metadata12"/><path id="path2" d="M 11.744,13.951494 12.292908,16 14.341466,15.451105 18.764424,7.790499 16.16696,6.290888 Z m 8.180152,-8.1696524 c 0.155963,-0.2701291 0.06375,-0.6142785 -0.20639,-0.7702381 L 18.096944,4.0758464 C 17.826809,3.9198869 17.48265,4.0121019 17.326687,4.282231 L 16.59486,5.5497633 19.192325,7.049374 Z" style="stroke-width:.5655455;fill:#fff;fill-opacity:1"/><path id="path4" fill="none" d="M0 0h24v24H0z"/><g id="g852" transform="translate(0.60117745,-0.32085681)"><path id="path4542" d="m 5.3572326,13.24958 0.096209,-0.02086 0.037362,-0.09108 0.049566,0.08506 0.098167,0.0074 -0.065576,0.07342 0.023309,0.09565 -0.090094,-0.03968 -0.083761,0.05172 0.00989,-0.09795 z" style="fill:#fff;fill-opacity:1;stroke:none;stroke-opacity:1"/><path id="path822" d="m 5.1431346,7.8201196 1.564024,9.3841454 8.7369624,1.510093" style="fill:none;stroke:#fff;stroke-width:1.39999998;stroke-linecap:butt;stroke-linejoin:miter;stroke-miterlimit:4;stroke-dasharray:none;stroke-opacity:1"/><rect id="rect824" width="1.568" height="1.568" x="4.365" y="6.921" style="fill:#fff;fill-opacity:1;stroke:#fff;stroke-width:1.93186045;stroke-miterlimit:4;stroke-dasharray:none;stroke-opacity:1"/><rect id="rect824-7" width="1.568" height="1.568" x="5.832" y="16.169" style="fill:#fff;fill-opacity:1;stroke:#fff;stroke-width:1.93186045;stroke-miterlimit:4;stroke-dasharray:none;stroke-opacity:1"/><rect id="rect824-9" width="1.568" height="1.568" x="14.964" y="17.787" style="fill:#fff;fill-opacity:1;stroke:#fff;stroke-width:1.93186045;stroke-miterlimit:4;stroke-dasharray:none;stroke-opacity:1"/></g></svg>